M48
; DRILL file {KiCad (5.1.4-0-10_14)} date Saturday, September 28, 2019 at 02:50:23 PM
; FORMAT={-:-/ absolute / inch / decimal}
; #@! TF.CreationDate,2019-09-28T14:50:23-07:00
; #@! TF.GenerationSoftware,Kicad,Pcbnew,(5.1.4-0-10_14)
; #@! TF.FileFunction,Plated,1,2,PTH
FMAT,2
INCH
T1C0.0120
T2C0.0140
T3C0.0394
%
G90
G05
T1
X3.55Y-4.2
X3.575Y-4.175
X3.585Y-5.885
X3.6Y-4.25
X3.625Y-4.225
X3.65Y-3.45
X3.65Y-4.3
X3.675Y-3.175
X3.675Y-3.425
X3.675Y-4.275
X3.675Y-5.725
X3.6915Y-5.7524
X3.7Y-3.45
X3.7Y-4.325
X3.725Y-3.475
X3.75Y-3.5
X3.765Y-5.88
X3.77Y-6.04
X3.77Y-6.2
X3.8Y-3.5
X3.85Y-3.5
X3.85Y-4.875
X3.875Y-5.125
X4.05Y-3.475
X4.05Y-3.75
X4.075Y-3.45
X4.075Y-4.45
X4.075Y-5.275
X4.075Y-5.375
X4.1Y-3.475
X4.1Y-4.125
X4.1Y-5.2
X4.1Y-5.6
X4.125Y-3.725
X4.125Y-2.75
X4.125Y-3.35
X4.125Y-4.325
X4.125Y-5.325
X4.125Y-5.725
X4.1398Y-6.2002
X4.15Y-2.85
X4.15Y-3.325
X4.15Y-3.7
X4.15Y-4.3
X4.15Y-5.3
X4.15Y-5.375
X4.15Y-5.775
X4.175Y-2.95
X4.175Y-3.3
X4.175Y-4.275
X4.175Y-5.275
X4.175Y-5.925
X4.2Y-3.05
X4.2Y-3.275
X4.2Y-4.05
X4.2Y-4.25
X4.2Y-5.05
X4.2Y-5.25
X4.2Y-5.975
X4.225Y-3.025
X4.225Y-3.25
X4.225Y-3.95
X4.225Y-4.025
X4.225Y-4.225
X4.225Y-4.85
X4.225Y-4.95
X4.225Y-5.025
X4.225Y-5.225
X4.225Y-6.0
X4.25Y-2.925
X4.25Y-3.225
X4.25Y-3.45
X4.25Y-3.85
X4.25Y-3.925
X4.25Y-4.2
X4.25Y-4.925
X4.25Y-5.2
X4.25Y-5.95
X4.25Y-6.2
X4.2513Y-6.25
X4.275Y-2.825
X4.275Y-3.2
X4.275Y-3.75
X4.275Y-3.825
X4.275Y-4.175
X4.275Y-4.75
X4.275Y-4.825
X4.275Y-5.175
X4.275Y-5.8
X4.275Y-6.225
X4.3Y-2.725
X4.3Y-3.175
X4.3Y-3.475
X4.3Y-3.725
X4.3Y-4.15
X4.3Y-4.725
X4.3Y-4.875
X4.3Y-5.15
X4.3Y-5.75
X4.475Y-3.375
X4.4755Y-3.65
X4.52Y-5.72
X4.52Y-6.175
X4.525Y-2.6
X4.55Y-4.7
X4.55Y-5.375
X4.7Y-2.725
X4.7Y-3.725
X4.7Y-4.725
X4.7Y-5.725
X4.725Y-2.825
X4.725Y-3.825
X4.725Y-4.825
X4.725Y-5.875
X4.75Y-2.8
X4.75Y-2.925
X4.75Y-3.925
X4.75Y-4.925
X4.75Y-5.925
X4.775Y-2.9
X4.775Y-3.025
X4.775Y-4.025
X4.775Y-5.025
X4.775Y-6.075
X4.8Y-3.0
X4.8Y-3.1
X4.8Y-4.1
X4.8Y-5.1
X4.8Y-6.05
X4.825Y-4.0
X4.825Y-5.0
X4.825Y-5.9
X4.85Y-3.9
X4.85Y-4.9
X4.85Y-5.85
X4.875Y-3.8
X4.875Y-4.8
X4.875Y-5.825
X4.875Y-6.2
X4.898Y-6.2523
X4.9191Y-6.2282
X4.926Y-6.1743
X4.95Y-2.75
X4.95Y-3.35
X4.95Y-4.325
X4.95Y-5.325
X4.95Y-5.725
X4.975Y-2.85
X4.975Y-3.325
X4.975Y-4.3
X4.975Y-5.3
X4.975Y-5.775
X5.0Y-2.95
X5.0Y-3.3
X5.0Y-4.275
X5.0Y-5.275
X5.0Y-5.925
X5.025Y-3.05
X5.025Y-3.275
X5.025Y-4.05
X5.025Y-4.25
X5.025Y-5.05
X5.025Y-5.25
X5.025Y-5.975
X5.05Y-3.025
X5.05Y-3.25
X5.05Y-3.95
X5.05Y-4.025
X5.05Y-4.225
X5.05Y-4.95
X5.05Y-5.025
X5.05Y-5.225
X5.05Y-6.0
X5.075Y-2.925
X5.075Y-3.225
X5.075Y-3.85
X5.075Y-3.925
X5.075Y-4.2
X5.075Y-4.85
X5.075Y-4.925
X5.075Y-5.2
X5.075Y-5.95
X5.1Y-2.825
X5.1Y-3.2
X5.1Y-3.75
X5.1Y-3.825
X5.1Y-4.175
X5.1Y-4.75
X5.1Y-4.825
X5.1Y-5.175
X5.1Y-5.8
X5.125Y-2.725
X5.125Y-3.175
X5.125Y-3.725
X5.125Y-4.15
X5.125Y-4.725
X5.125Y-5.15
X5.125Y-5.75
X5.3Y-3.4
X5.3005Y-3.65
X5.35Y-2.6
X5.375Y-4.7
X5.375Y-5.4
X5.525Y-2.725
X5.525Y-3.725
X5.525Y-4.725
X5.525Y-5.75
X5.55Y-2.825
X5.55Y-3.825
X5.55Y-4.825
X5.55Y-5.875
X5.55Y-5.925
X5.55Y-6.125
X5.55Y-6.281
X5.575Y-2.925
X5.575Y-3.925
X5.575Y-4.925
X5.6Y-3.025
X5.6Y-4.025
X5.6Y-5.025
X5.625Y-3.1
X5.625Y-4.1
X5.625Y-5.1
X5.625Y-5.975
X5.65Y-3.0
X5.65Y-4.0
X5.65Y-5.0
X5.65Y-5.9
X5.65Y-5.95
X5.65Y-6.15
X5.675Y-2.9
X5.675Y-3.9
X5.675Y-4.9
X5.675Y-5.85
X5.7Y-2.8
X5.7Y-3.8
X5.7Y-4.8
X5.7Y-5.825
X5.775Y-2.75
X5.775Y-3.35
X5.775Y-4.325
X5.775Y-5.325
X5.775Y-5.725
X5.8Y-2.85
X5.8Y-3.325
X5.8Y-4.3
X5.8Y-5.3
X5.8Y-5.775
X5.825Y-2.95
X5.825Y-3.3
X5.825Y-4.275
X5.825Y-5.275
X5.825Y-5.925
X5.85Y-3.05
X5.85Y-3.275
X5.85Y-4.05
X5.85Y-4.25
X5.85Y-5.05
X5.85Y-5.25
X5.85Y-5.975
X5.875Y-3.025
X5.875Y-3.25
X5.875Y-3.95
X5.875Y-4.025
X5.875Y-4.225
X5.875Y-4.95
X5.875Y-5.025
X5.875Y-5.225
X5.875Y-6.0
X5.9Y-2.925
X5.9Y-3.225
X5.9Y-3.85
X5.9Y-3.925
X5.9Y-4.2
X5.9Y-4.85
X5.9Y-4.925
X5.9Y-5.2
X5.9Y-5.95
X5.925Y-2.825
X5.925Y-3.2
X5.925Y-3.75
X5.925Y-3.825
X5.925Y-4.175
X5.925Y-4.75
X5.925Y-4.825
X5.925Y-5.175
X5.925Y-5.8
X5.925Y-6.15
X5.95Y-2.725
X5.95Y-3.175
X5.95Y-3.725
X5.95Y-4.15
X5.95Y-4.725
X5.95Y-5.15
X5.95Y-5.75
X5.95Y-6.175
X6.12Y-6.24
X6.125Y-3.425
X6.1255Y-3.65
X6.16Y-6.2
X6.175Y-2.6009
X6.175Y-5.725
X6.2Y-4.7
X6.2Y-5.425
X6.35Y-2.725
X6.35Y-3.725
X6.35Y-4.725
X6.35Y-5.725
X6.35Y-6.075
X6.375Y-2.825
X6.375Y-3.825
X6.375Y-4.825
X6.375Y-5.875
X6.375Y-6.05
X6.375Y-5.925
X6.4Y-2.8
X6.4Y-2.925
X6.4Y-4.0
X6.4Y-4.925
X6.425Y-2.9
X6.425Y-3.025
X6.425Y-4.1
X6.425Y-5.025
X6.45Y-3.0
X6.45Y-3.1
X6.45Y-4.1761
X6.45Y-5.1
X6.45Y-5.975
X6.475Y-4.1497
X6.475Y-5.0
X6.475Y-6.0
X6.5Y-4.175
X6.5Y-4.9
X6.525Y-4.15
X6.525Y-4.8
X6.525Y-5.825
X6.55Y-4.0
X6.55Y-4.475
X6.575Y-3.95
X6.6Y-3.45
X6.6Y-3.7
X6.6Y-3.8
X6.6Y-4.425
X6.6Y-4.975
X6.6Y-5.85
X6.625Y-4.775
X6.625Y-5.7
X6.625Y-5.75
X6.625Y-5.9
X6.65Y-4.4
X6.65Y-4.725
X6.65Y-4.825
X6.65Y-4.975
X6.65Y-5.35
X6.75Y-2.95
X6.75Y-2.7
X6.75Y-2.9
X6.75Y-3.0
X6.75Y-3.475
X6.75Y-3.75
X6.75Y-4.45
X6.75Y-5.4
X6.775Y-3.45
X6.775Y-3.8
X6.775Y-3.9
X6.775Y-4.475
X6.775Y-5.375
X6.775Y-5.8
X6.775Y-5.95
X6.8Y-2.8
X6.8Y-3.475
X6.8Y-3.85
X6.8Y-4.35
X6.8Y-4.775
X6.8Y-4.875
X6.8Y-4.925
X6.8Y-4.975
X6.8Y-6.15
X6.825Y-2.75
X6.825Y-3.75
X6.825Y-4.375
X6.825Y-4.825
X6.825Y-6.175
X6.85Y-3.375
X6.85Y-3.95
X6.85Y-4.0
X6.85Y-4.05
X6.85Y-4.925
X6.85Y-5.025
X6.85Y-6.125
X6.875Y-3.4
X6.875Y-5.425
X6.875Y-6.0
X6.9Y-3.425
X6.925Y-3.45
X7.025Y-5.95
T2
X3.27Y-6.04
X3.425Y-2.85
X4.525Y-4.65
X4.55Y-3.65
X4.55Y-5.65
X4.8Y-2.75
X5.35Y-4.65
X5.375Y-3.65
X5.375Y-5.65
X5.6Y-2.725
X6.175Y-4.65
X6.2Y-3.65
X6.2Y-5.65
X6.425Y-2.75
X6.975Y-2.6
X6.975Y-3.625
X6.975Y-4.65
X7.0Y-3.7
X7.0Y-5.6
T3
X3.3Y-3.275
X3.3Y-3.375
X3.3Y-3.475
X3.3Y-3.575
X3.3Y-3.675
X3.3Y-3.775
X3.3Y-3.875
X3.3Y-3.975
X3.3Y-4.075
X3.3Y-4.175
X3.3Y-4.275
X3.3Y-4.375
X3.3Y-4.475
X3.3Y-4.575
X3.3Y-4.675
X3.3Y-4.775
X3.3Y-4.875
X3.3Y-4.975
X3.3Y-5.075
X3.3Y-5.175
X3.3Y-5.275
X3.3Y-5.375
X3.3Y-5.475
X3.3Y-5.575
X3.4Y-3.275
X3.4Y-3.375
X3.4Y-3.475
X3.4Y-3.575
X3.4Y-3.675
X3.4Y-3.775
X3.4Y-3.875
X3.4Y-3.975
X3.4Y-4.075
X3.4Y-4.175
X3.4Y-4.275
X3.4Y-4.375
X3.4Y-4.475
X3.4Y-4.575
X3.4Y-4.675
X3.4Y-4.775
X3.4Y-4.875
X3.4Y-4.975
X3.4Y-5.075
X3.4Y-5.175
X3.4Y-5.275
X3.4Y-5.375
X3.4Y-5.475
X3.4Y-5.575
T0
M30
